<svg xmlns="http://www.w3.org/2000/svg" xmlns:xlink="http://www.w3.org/1999/xlink" viewBox="0,0,256,256" width="100px" height="100px" fill-rule="nonzero"><g fill="#d32f2f" fill-rule="nonzero" stroke="none" stroke-width="1" stroke-linecap="butt" stroke-linejoin="miter" stroke-miterlimit="10" stroke-dasharray="" stroke-dashoffset="0" font-family="none" font-weight="none" font-size="none" text-anchor="none" style="mix-blend-mode: normal"><g transform="scale(2.56,2.56)"><path d="M13,29.908c0,0 3.887,-1.186 10.237,-2.424c6.347,-1.239 15.169,-2.501 24.951,-2.646c9.782,-0.142 18.638,0.862 25.018,1.915c6.383,1.052 10.303,2.124 10.303,2.124c0,0 -3.972,0.865 -10.352,1.751c-6.383,0.885 -15.162,1.819 -24.856,1.96c-9.694,0.143 -18.496,-0.534 -24.902,-1.232c-6.403,-0.7 -10.399,-1.448 -10.399,-1.448zM13.02,52.356c0,0 16.009,-4.436 35.924,-5.131c19.915,-0.695 36.194,2.614 36.194,2.614c0,0 -16.008,4.436 -35.923,5.131c-19.915,0.695 -36.195,-2.614 -36.195,-2.614zM14.643,74.235c0,0 16.323,-4.291 36.58,-4.807c20.257,-0.516 36.777,2.941 36.777,2.941c0,0 -16.323,4.291 -36.58,4.807c-20.257,0.515 -36.777,-2.941 -36.777,-2.941z"></path></g></g></svg>